<mxfile host="app.diagrams.net" modified="2022-10-20T07:56:10.644Z" agent="5.0 (Windows NT 10.0; Win64; x64) AppleWebKit/537.36 (KHTML, like Gecko) Chrome/106.0.0.0 Safari/537.36" etag="rPi8sYLzhFVAXxTx7UwN" version="20.4.2" type="github">
  <diagram id="WL0fcOwWx98NFGZTozra" name="Page-1">
    <mxGraphModel dx="1662" dy="768" grid="1" gridSize="10" guides="1" tooltips="1" connect="1" arrows="1" fold="1" page="1" pageScale="1" pageWidth="583" pageHeight="827" math="0" shadow="0">
      <root>
        <mxCell id="0" />
        <mxCell id="1" parent="0" />
      </root>
    </mxGraphModel>
  </diagram>
</mxfile>
